
        <svg xmlns="http://www.w3.org/2000/svg" xmlns:xlink="http://www.w3.org/1999/xlink" version="1.1" width="3192" 
        height="2000" viewBox="0 0 3192 3192">
			
			<g transform="scale(9.6) translate(10, 10)">
				<defs id="SvgjsDefs1257"></defs><g id="SvgjsG1258" featureKey="rootContainer" transform="matrix(3.125,0,0,3.125,0,0)" fill="#000000"><path xmlns="http://www.w3.org/2000/svg" d="M0 0h100v100H0z"></path></g><g id="SvgjsG1259" featureKey="symbolFeature-0" transform="matrix(3.775993952509685,0,0,3.775993952509685,96,49)" fill="#f5eded"><g xmlns="http://www.w3.org/2000/svg"><path fill="#f5eded" d="M29.5,21h-2.691c-0.045-0.239-0.1-0.473-0.16-0.706l4.799-2.399c0.494-0.247,0.693-0.848,0.447-1.342   c-0.248-0.494-0.846-0.692-1.342-0.447l-4.578,2.288C24.229,14.626,20.42,12,16,12c-5.382,0-9.865,3.888-10.809,9H2.5   C1.122,21,0,22.121,0,23.5c0,0.49,0.18,0.963,0.505,1.329L4,28.761V29.5C4,30.879,5.122,32,6.5,32h19c1.379,0,2.5-1.121,2.5-2.5   v-0.739l3.494-3.932C31.82,24.463,32,23.99,32,23.5C32,22.121,30.879,21,29.5,21z M25.799,21h-0.562l0.498-0.25   C25.754,20.834,25.781,20.915,25.799,21z M16,13c4.029,0,7.5,2.4,9.082,5.841l-0.891,0.445C22.775,16.171,19.645,14,16,14   c-4.282,0-7.859,2.993-8.77,7H6.202C7.131,16.441,11.171,13,16,13z M20.576,21c-0.773-1.763-2.531-3-4.576-3s-3.802,1.237-4.576,3   H10.35c0.826-2.326,3.043-4,5.65-4c2.465,0,4.588,1.496,5.508,3.627L20.764,21H20.576z M16,20c-0.883,0-1.67,0.391-2.22,1h-1.224   c0.694-1.189,1.97-2,3.444-2c1.473,0,2.75,0.811,3.443,2h-1.225C17.67,20.391,16.883,20,16,20z M16,16   c-3.165,0-5.842,2.112-6.705,5H8.263c0.892-3.444,4.017-6,7.737-6c3.246,0,6.043,1.948,7.295,4.734l-0.893,0.446   C21.314,17.723,18.855,16,16,16z M26,28v1.5c0,0.276-0.225,0.5-0.5,0.5h-19C6.224,30,6,29.776,6,29.5V28l-4-4.5   C2,23.224,2.224,23,2.5,23H5h1h1h1h1h1h1h1h1h6h1h1h1h1h1h1h1h1h2.5c0.275,0,0.5,0.224,0.5,0.5L26,28z"></path><path fill="#f5eded" d="M7.977,11.712c0.003,0.006,0.005,0.012,0.008,0.018c0,0,0.001,0,0.002,0C8.07,11.89,8.236,12,8.43,12   c0.277,0,0.502-0.226,0.502-0.503c0-0.043-0.007-0.085-0.018-0.125c0.002-0.007,0.002-0.013,0-0.02   c-0.375-0.882-0.019-1.85,0.419-2.892c0.473-1.126,0.98-2.376,0.422-3.647C9.684,4.63,9.507,4.5,9.299,4.5   c-0.271,0-0.49,0.22-0.49,0.49c0,0.06,0.012,0.116,0.032,0.169c0,0.002,0,0.004,0.001,0.006c0.001,0.003,0.002,0.006,0.003,0.009   C8.847,5.178,8.848,5.182,8.85,5.186c0.404,0.909,0.013,1.841-0.428,2.893C7.956,9.188,7.44,10.417,7.959,11.67   C7.965,11.685,7.97,11.698,7.977,11.712z"></path><path fill="#f5eded" d="M20.154,11.566c0.004,0.006,0.006,0.012,0.008,0.018h0.002c0.084,0.16,0.25,0.271,0.443,0.271   c0.277,0,0.504-0.226,0.504-0.503c0-0.043-0.008-0.085-0.018-0.125c0.002-0.007,0.002-0.013-0.002-0.02   c-0.373-0.882-0.018-1.85,0.42-2.892c0.473-1.126,0.98-2.376,0.422-3.647c-0.072-0.184-0.248-0.313-0.457-0.313   c-0.27,0-0.49,0.22-0.49,0.49c0,0.06,0.014,0.116,0.033,0.169c0,0.002,0,0.004,0,0.006c0.002,0.003,0.002,0.006,0.004,0.009   c0.002,0.004,0.004,0.008,0.004,0.012c0.404,0.909,0.014,1.841-0.428,2.893c-0.465,1.109-0.98,2.339-0.461,3.592   C20.143,11.539,20.148,11.553,20.154,11.566z"></path><path fill="#f5eded" d="M15.019,7.212c0.003,0.006,0.005,0.012,0.008,0.018c0,0,0.001,0,0.002,0c0.084,0.16,0.25,0.271,0.443,0.271   c0.277,0,0.502-0.226,0.502-0.503c0-0.043-0.007-0.085-0.018-0.125c0.002-0.007,0.002-0.013,0-0.02   c-0.375-0.882-0.019-1.85,0.419-2.892c0.473-1.126,0.98-2.376,0.422-3.647C16.725,0.13,16.549,0,16.34,0   c-0.27,0-0.49,0.22-0.49,0.49c0,0.06,0.012,0.116,0.032,0.169c0,0.002,0,0.004,0.001,0.006c0.001,0.003,0.002,0.006,0.003,0.009   c0.001,0.004,0.003,0.008,0.004,0.012c0.404,0.909,0.013,1.841-0.428,2.893c-0.466,1.109-0.982,2.339-0.462,3.592   C15.007,7.185,15.012,7.198,15.019,7.212z"></path></g></g><g id="SvgjsG1260" featureKey="nameFeature-0" transform="matrix(1.210448615499527,0,0,1.210448615499527,56.000000049602,195.34614340351123)" fill="#f5eded"><path d="M9.32 23.04 c0.88 0.88 1.44 2.08 1.44 3.4 l0 8.76 c0 2.64 -2.16 4.8 -4.8 4.8 l-5.92 0 l-0.04 -28.48 l5.28 0 c2.92 0.12 4.64 2.92 4.6 5.56 l-0.04 3.96 c0 0.72 -0.2 1.4 -0.52 2 z M5.96 36.16 c0.56 0 1 -0.44 1 -0.96 l-0.04 -8.76 c0 -0.56 -0.44 -0.96 -0.96 -0.96 l-2.12 0 l0 10.68 l2.12 0 z M3.8 15.32 l0 6.32 l1.6 0 c0.32 0 0.64 -0.28 0.64 -0.64 l0.04 -3.96 c0 -0.8 -0.4 -1.68 -0.96 -1.72 l-1.32 0 z M18.268 11.36 l0 28.48 l-3.8 0 l0 -28.48 l3.8 0 z M35.816 11.36 l0 3.84 l-4.76 0 l0 24.84 l-3.84 0 l0 -24.84 l-5.24 0 l0 -3.84 l13.84 0 z M48.844 24.92 l-5.52 0 l0 11.28 l5.56 0 l0 3.8 l-9.36 0 l0 -28.56 l9.36 0 l0 3.8 l-5.56 0 l0 5.88 l5.52 0 l0 3.8 z M71.62 23.04 c0.88 0.88 1.44 2.08 1.44 3.4 l0 8.76 c0 2.64 -2.16 4.8 -4.8 4.8 l-5.92 0 l-0.04 -28.48 l5.28 0 c2.92 0.12 4.64 2.92 4.6 5.56 l-0.04 3.96 c0 0.72 -0.2 1.4 -0.52 2 z M68.25999999999999 36.16 c0.56 0 1 -0.44 1 -0.96 l-0.04 -8.76 c0 -0.56 -0.44 -0.96 -0.96 -0.96 l-2.12 0 l0 10.68 l2.12 0 z M66.1 15.32 l0 6.32 l1.6 0 c0.32 0 0.64 -0.28 0.64 -0.64 l0.04 -3.96 c0 -0.8 -0.4 -1.68 -0.96 -1.72 l-1.32 0 z M86.368 40 l-1.44 -9.88 l-4.04 0 l-1.32 9.88 l-3.84 0 l4.32 -28.6 l5.16 0 l5 28.6 l-3.84 0 z M81.40799999999999 26.32 l2.96 0 l-1.52 -10.4 z M97.676 36.24 l5.52 0 l0 3.76 l-9.28 0 l0 -28.72 l3.76 0 l0 24.96 z M116.904 40 l-1.44 -9.88 l-4.04 0 l-1.32 9.88 l-3.84 0 l4.32 -28.6 l5.16 0 l5 28.6 l-3.84 0 z M111.94399999999999 26.32 l2.96 0 l-1.52 -10.4 z M133.732 33.44 l0.16 -22.16 l3.84 0 l-0.24 28.88 l-5.96 0 l-3.24 -22.36 l0 22.36 l-3.84 0 l0 -28.88 l6.2 0 z M146.8 39.92 c-2.96 0 -5.36 -2.4 -5.36 -5.36 l0 -17.76 c0 -2.96 2.4 -5.36 5.36 -5.36 s5.36 2.4 5.36 5.36 l0 1.6 l-3.8 0 l0 -1.6 c0 -0.84 -0.72 -1.56 -1.56 -1.56 s-1.56 0.72 -1.56 1.56 l0 17.76 c0 0.84 0.72 1.56 1.56 1.56 s1.56 -0.72 1.56 -1.56 l0 -2.56 l3.8 0 l0 2.56 c0 2.96 -2.4 5.36 -5.36 5.36 z M165.188 24.92 l-5.52 0 l0 11.28 l5.56 0 l0 3.8 l-9.36 0 l0 -28.56 l9.36 0 l0 3.8 l-5.56 0 l0 5.88 l5.52 0 l0 3.8 z"></path></g>
			</g>
		</svg>
	